# xmcd CD database file
#
# Track frame offsets:
#	150
#	28935
#	51397
#	77175
#	90797
#	108620
#	122057
#	148307
#	162297
#	176810
#	194730
#	213727
#	238700
#	262607
#	273870
#
# Disc length: 3812 seconds
#
# Revision: 1
# Processed by: cddbd v1.5.1PL0 Copyright (c) Steve Scherf et al.
# Submitted via: CDex 1.51
#
DISCID=de0ee20f
DTITLE=Sojiro - 25th Anniversary  Best Selection Disc 2
DYEAR=2000
DGENRE=New Age
TTITLE0=まほろば
TTITLE1=UMI-YURA
TTITLE2=リュートのための古い舞曲とアリアより「イタリアーナ」「シチリアーナ」
TTITLE3=アヴェ・マリア
TTITLE4=大黄河
TTITLE5=あゆみ
TTITLE6=道行
TTITLE7=赤とんぼ
TTITLE8=埴生の宿
TTITLE9=アニーローリー
TTITLE10=コンドルは飛んで行く
TTITLE11=カレラヤ
TTITLE12=天空のオリオン
TTITLE13=鳥の歌
TTITLE14=[Japanese Titles]
EXTD=YEAR: 2000
EXTT0=
EXTT1=
EXTT2=
EXTT3=
EXTT4=
EXTT5=
EXTT6=
EXTT7=
EXTT8=
EXTT9=
EXTT10=
EXTT11=
EXTT12=
EXTT13=
EXTT14=
PLAYORDER=
